<?xml version="1.0" standalone="no"?>
<!DOCTYPE svg PUBLIC "-//W3C//DTD SVG 20010904//EN"
 "http://www.w3.org/TR/2001/REC-SVG-20010904/DTD/svg10.dtd">
<svg version="1.0" xmlns="http://www.w3.org/2000/svg"
 width="1014.000000pt" height="1021.000000pt" viewBox="0 0 1014.000000 1021.000000"
 preserveAspectRatio="xMidYMid meet">

<g transform="translate(0.000000,1021.000000) scale(0.100000,-0.100000)"
fill="#000000" stroke="none">
<path d="M6385 6683 c-14 -21 -25 -41 -25 -45 0 -5 27 -8 60 -8 59 0 60 0 60
28 0 20 -8 32 -29 45 -16 9 -32 17 -35 17 -3 0 -17 -17 -31 -37z"/>
<path d="M6510 6650 c0 -16 7 -20 37 -20 41 0 41 1 -4 24 -32 16 -33 16 -33
-4z"/>
<path d="M6338 6538 c-2 -35 -2 -66 0 -70 2 -5 34 -8 73 -8 l69 0 0 70 0 70
-69 0 -69 0 -4 -62z"/>
<path d="M6508 6538 c-2 -35 -2 -66 1 -69 4 -3 36 -4 74 -1 l67 4 0 64 0 64
-69 0 -69 0 -4 -62z"/>
<path d="M6680 6531 l0 -61 65 0 65 0 0 39 c0 37 -2 39 -48 54 -26 9 -56 19
-65 23 -15 5 -17 -2 -17 -55z"/>
<path d="M6271 6509 l-33 -39 36 0 c35 0 36 1 36 40 0 22 -1 40 -2 39 -2 0
-18 -18 -37 -40z"/>
<path d="M6840 6506 l0 -36 70 0 c62 0 70 2 70 19 0 15 -12 22 -52 31 -29 6
-61 14 -70 17 -15 3 -18 -2 -18 -31z"/>
<path d="M7010 6480 c0 -5 12 -10 28 -9 24 0 25 1 7 9 -27 12 -35 12 -35 0z"/>
<path d="M6335 6372 l0 -77 73 -3 72 -3 0 81 0 80 -72 0 -73 0 0 -78z"/>
<path d="M6502 6374 l3 -79 75 0 75 0 3 60 c1 33 -2 67 -7 75 -7 9 -33 16 -81
18 l-71 4 3 -78z"/>
<path d="M6187 6433 c-4 -3 -7 -35 -7 -70 l0 -63 65 0 65 0 0 70 0 70 -58 0
c-32 0 -62 -3 -65 -7z"/>
<path d="M6675 6407 c-4 -18 -5 -51 -3 -72 l3 -40 68 -3 67 -3 0 76 0 75 -65
0 -64 0 -6 -33z"/>
<path d="M6838 6373 c-3 -38 -2 -71 1 -75 3 -3 36 -4 74 -1 l67 6 0 68 0 69
-69 0 -69 0 -4 -67z"/>
<path d="M7010 6370 l0 -70 69 0 70 0 7 46 c5 39 3 49 -17 70 -18 20 -32 24
-76 24 l-53 0 0 -70z"/>
<path d="M7180 6338 c0 -34 3 -38 25 -38 27 0 26 10 -9 55 -15 19 -15 18 -16
-17z"/>
<path d="M6206 6223 c8 -25 14 -57 14 -70 0 -21 4 -23 45 -23 l45 0 0 70 0 70
-59 0 -59 0 14 -47z"/>
<path d="M6340 6200 l0 -70 70 0 70 0 0 70 0 70 -70 0 -70 0 0 -70z"/>
<path d="M6500 6216 c0 -85 1 -86 86 -86 l74 0 0 70 0 70 -80 0 -80 0 0 -54z"/>
<path d="M6680 6200 l0 -70 65 0 65 0 0 70 0 70 -65 0 -65 0 0 -70z"/>
<path d="M6830 6200 l0 -70 81 0 82 0 -7 53 c-3 28 -6 60 -6 70 0 15 -10 17
-75 17 l-75 0 0 -70z"/>
<path d="M7010 6231 c0 -21 -3 -53 -6 -70 l-6 -31 76 0 76 0 0 70 0 70 -70 0
-70 0 0 -39z"/>
<path d="M7180 6200 l0 -70 59 0 60 0 -25 67 c-13 38 -24 69 -24 70 0 2 -16 3
-35 3 l-35 0 0 -70z"/>
<path d="M6517 6104 c-4 -4 -7 -36 -7 -70 0 -73 6 -78 96 -72 l49 3 0 70 0 70
-65 3 c-36 2 -69 0 -73 -4z"/>
<path d="M6682 6038 l3 -73 63 -2 62 -1 0 74 0 74 -65 0 -66 0 3 -72z"/>
<path d="M6834 6097 c-3 -8 -4 -41 -2 -73 l3 -59 75 0 75 0 0 70 0 70 -73 3
c-55 2 -74 0 -78 -11z"/>
<path d="M7005 6098 c-4 -9 -5 -42 -3 -74 l3 -59 40 -3 c21 -2 54 -1 72 3 l33
6 0 64 0 65 -39 0 c-21 0 -52 3 -70 6 -22 5 -32 2 -36 -8z"/>
<path d="M6220 6082 c0 -9 -9 -34 -20 -55 -11 -20 -20 -41 -20 -47 0 -6 28
-10 65 -10 l65 0 0 65 0 65 -45 0 c-36 0 -45 -3 -45 -18z"/>
<path d="M6340 6035 l0 -65 70 0 70 0 0 65 0 65 -70 0 -70 0 0 -65z"/>
<path d="M7180 6035 l0 -65 65 0 65 0 0 65 0 65 -65 0 -65 0 0 -65z"/>
<path d="M7340 6007 c0 -33 3 -37 26 -37 l25 0 -22 33 c-12 17 -24 34 -26 36
-2 2 -3 -12 -3 -32z"/>
<path d="M2390 5990 c0 -16 7 -20 30 -20 17 0 30 2 30 5 0 2 -13 11 -30 20
-29 15 -30 15 -30 -5z"/>
<path d="M7018 5943 c-15 -4 -18 -16 -18 -74 l0 -69 80 0 80 0 0 59 c0 75 -14
91 -78 90 -26 -1 -55 -3 -64 -6z"/>
<path d="M2394 5908 c18 -114 15 -108 46 -108 l30 0 0 70 0 70 -40 0 c-40 0
-41 0 -36 -32z"/>
<path d="M2500 5871 l0 -71 70 0 c70 0 70 0 70 28 0 22 -11 34 -62 67 -34 22
-65 42 -70 43 -4 2 -8 -28 -8 -67z"/>
<path d="M6055 5926 c-40 -13 -40 -13 -43 -69 l-3 -57 71 0 70 0 0 70 c0 70 0
70 -27 69 -16 -1 -46 -7 -68 -13z"/>
<path d="M6180 5870 l0 -70 65 0 65 0 0 70 0 70 -65 0 -65 0 0 -70z"/>
<path d="M6340 5870 l0 -70 70 0 70 0 0 70 0 70 -70 0 -70 0 0 -70z"/>
<path d="M6506 5924 c-3 -9 -6 -40 -6 -70 l0 -54 80 0 80 0 0 70 0 70 -74 0
c-58 0 -75 -3 -80 -16z"/>
<path d="M6680 5870 l0 -70 65 0 65 0 0 70 0 70 -65 0 -65 0 0 -70z"/>
<path d="M6830 5870 l0 -70 80 0 80 0 0 70 0 70 -80 0 -80 0 0 -70z"/>
<path d="M7180 5886 c0 -30 -3 -61 -6 -70 -5 -14 4 -16 65 -16 l71 0 0 70 0
70 -65 0 -65 0 0 -54z"/>
<path d="M7340 5870 l0 -70 70 0 70 0 0 38 c0 53 -50 102 -103 102 l-37 0 0
-70z"/>
<path d="M5023 5918 c-20 -9 -23 -19 -23 -65 0 -29 4 -53 8 -53 4 0 17 29 29
65 22 68 22 70 -14 53z"/>
<path d="M5889 5903 c-19 -5 -49 -54 -49 -82 0 -19 6 -21 70 -21 l70 0 0 55 0
55 -37 -1 c-21 -1 -45 -3 -54 -6z"/>
<path d="M4905 5875 c-61 -20 -70 -26 -73 -49 l-3 -26 75 0 76 0 0 50 c0 28
-1 50 -2 49 -2 -1 -34 -11 -73 -24z"/>
<path d="M4546 5825 l-16 -25 60 0 c52 0 60 2 60 19 0 13 -10 20 -31 25 -49 9
-56 8 -73 -19z"/>
<path d="M4733 5843 c-45 -3 -53 -7 -53 -24 0 -17 7 -19 65 -19 63 0 65 1 65
25 0 14 -5 24 -12 23 -7 -1 -37 -3 -65 -5z"/>
<path d="M2670 5815 c0 -10 9 -15 27 -15 29 0 29 2 -4 19 -19 10 -23 9 -23 -4z"/>
<path d="M7510 5815 c0 -8 7 -15 16 -15 14 0 14 3 4 15 -7 8 -14 15 -16 15 -2
0 -4 -7 -4 -15z"/>
<path d="M6507 5774 c-4 -4 -7 -38 -7 -76 l0 -68 80 0 81 0 -3 73 -3 72 -70 3
c-39 1 -74 0 -78 -4z"/>
<path d="M6680 5705 l0 -75 43 0 c23 0 52 -3 65 -6 21 -6 22 -4 22 75 l0 81
-65 0 -65 0 0 -75z"/>
<path d="M6834 5766 c-3 -7 -4 -42 -2 -77 l3 -64 71 -3 71 -3 7 71 c4 38 4 74
1 80 -10 16 -145 13 -151 -4z"/>
<path d="M7004 5766 c-3 -7 -4 -42 -2 -77 l3 -64 45 -3 c24 -2 59 -1 77 3 l33
6 0 74 0 75 -75 0 c-54 0 -77 -4 -81 -14z"/>
<path d="M7178 5774 c-5 -4 -8 -38 -8 -76 l0 -68 70 0 70 0 0 70 c0 70 0 70
-27 70 -16 0 -44 3 -63 6 -19 3 -38 2 -42 -2z"/>
<path d="M2446 5748 c10 -13 20 -25 21 -27 2 -2 3 8 3 22 0 21 -5 27 -22 27
-21 0 -21 0 -2 -22z"/>
<path d="M2500 5727 c0 -59 38 -97 98 -97 l42 0 0 70 0 70 -70 0 -70 0 0 -43z"/>
<path d="M2670 5700 l0 -70 65 0 65 0 0 53 c0 68 -18 87 -83 87 l-47 0 0 -70z"/>
<path d="M4507 5763 c-4 -3 -7 -35 -7 -70 l0 -63 75 0 75 0 0 70 0 70 -68 0
c-38 0 -72 -3 -75 -7z"/>
<path d="M4680 5700 l0 -70 65 0 65 0 0 70 0 70 -65 0 -65 0 0 -70z"/>
<path d="M4830 5700 l0 -70 33 0 c43 0 117 72 117 113 0 27 0 27 -75 27 l-75
0 0 -70z"/>
<path d="M5840 5700 l0 -70 70 0 70 0 0 70 0 70 -70 0 -70 0 0 -70z"/>
<path d="M6010 5700 l0 -70 70 0 70 0 0 70 0 70 -70 0 -70 0 0 -70z"/>
<path d="M6180 5700 l0 -70 65 0 65 0 0 70 0 70 -65 0 -65 0 0 -70z"/>
<path d="M6340 5700 l0 -70 70 0 70 0 0 70 0 70 -70 0 -70 0 0 -70z"/>
<path d="M7340 5700 l0 -70 70 0 70 0 0 70 0 70 -70 0 -70 0 0 -70z"/>
<path d="M7510 5700 l0 -70 75 0 c91 0 93 6 29 84 -37 44 -52 56 -75 56 l-29
0 0 -70z"/>
<path d="M5778 5695 l-25 -65 28 0 c29 0 29 0 29 65 0 36 -1 65 -3 65 -2 0
-15 -29 -29 -65z"/>
<path d="M4429 5725 c-75 -27 -99 -44 -99 -70 0 -24 2 -25 75 -25 l75 0 0 55
c0 60 1 59 -51 40z"/>
<path d="M2830 5670 l0 -40 45 0 c25 0 45 1 45 3 0 1 -20 20 -45 40 l-45 38 0
-41z"/>
<path d="M4270 5645 c-10 -13 -9 -15 9 -15 12 0 21 6 21 15 0 8 -4 15 -9 15
-5 0 -14 -7 -21 -15z"/>
<path d="M6334 5596 c-3 -7 -4 -40 -2 -72 l3 -59 73 -3 72 -3 0 76 0 75 -70 0
c-50 0 -72 -4 -76 -14z"/>
<path d="M6504 5597 c-3 -8 -4 -41 -2 -73 l3 -59 75 0 75 0 0 70 0 70 -73 3
c-55 2 -74 0 -78 -11z"/>
<path d="M6680 5535 l0 -75 65 0 65 0 0 75 0 75 -65 0 -65 0 0 -75z"/>
<path d="M6834 5596 c-3 -7 -4 -40 -2 -72 l3 -59 73 -3 72 -3 0 76 0 75 -70 0
c-50 0 -72 -4 -76 -14z"/>
<path d="M7004 5597 c-3 -8 -4 -41 -2 -73 l3 -59 75 0 75 0 0 70 0 70 -73 3
c-55 2 -74 0 -78 -11z"/>
<path d="M7177 5602 c-3 -4 -3 -37 0 -75 l6 -67 63 0 64 0 0 75 0 75 -64 0
c-36 0 -67 -3 -69 -8z"/>
<path d="M2590 5558 c11 -24 20 -53 20 -65 0 -14 6 -23 15 -23 12 0 15 14 15
65 l0 65 -35 0 -34 0 19 -42z"/>
<path d="M2670 5535 l0 -65 65 0 65 0 0 65 0 65 -65 0 -65 0 0 -65z"/>
<path d="M2830 5535 l0 -65 70 0 70 0 0 65 0 65 -70 0 -70 0 0 -65z"/>
<path d="M4195 5557 c-14 -24 -25 -53 -25 -65 0 -20 5 -22 65 -22 l65 0 0 65
0 65 -40 0 c-36 0 -41 -4 -65 -43z"/>
<path d="M4330 5535 l0 -65 75 0 75 0 0 65 0 65 -75 0 -75 0 0 -65z"/>
<path d="M4500 5535 l0 -65 75 0 75 0 0 65 0 65 -75 0 -75 0 0 -65z"/>
<path d="M4680 5535 l0 -65 39 0 c34 0 42 5 65 40 14 22 26 51 26 65 0 24 -2
25 -65 25 l-65 0 0 -65z"/>
<path d="M4830 5589 c0 -5 5 -7 10 -4 6 3 10 8 10 11 0 2 -4 4 -10 4 -5 0 -10
-5 -10 -11z"/>
<path d="M5711 5550 c-46 -74 -43 -80 34 -80 l65 0 0 65 0 65 -34 0 c-30 0
-38 -6 -65 -50z"/>
<path d="M5840 5535 l0 -65 70 0 70 0 0 65 0 65 -70 0 -70 0 0 -65z"/>
<path d="M6010 5536 c0 -72 4 -76 93 -76 l47 0 0 70 0 70 -70 0 -70 0 0 -64z"/>
<path d="M6175 5541 c-4 -33 -4 -65 0 -70 3 -6 35 -11 71 -11 l64 0 0 70 0 70
-64 0 -64 0 -7 -59z"/>
<path d="M7332 5533 l3 -68 40 -3 c21 -2 54 -1 72 3 l33 6 0 64 0 65 -75 0
-76 0 3 -67z"/>
<path d="M7510 5535 l0 -65 75 0 75 0 0 65 0 65 -75 0 -75 0 0 -65z"/>
<path d="M7680 5535 l0 -65 61 0 61 0 -17 28 c-37 57 -77 102 -91 102 -11 0
-14 -16 -14 -65z"/>
<path d="M3000 5525 l0 -55 70 0 c62 0 70 2 70 19 0 13 -20 31 -64 55 -35 20
-67 36 -70 36 -3 0 -6 -25 -6 -55z"/>
<path d="M3170 5480 c0 -5 10 -10 23 -10 18 0 19 2 7 10 -19 13 -30 13 -30 0z"/>
<path d="M2610 5408 c0 -18 -3 -50 -6 -70 -6 -34 -4 -38 15 -38 19 0 21 5 21
70 0 56 -3 70 -15 70 -10 0 -15 -10 -15 -32z"/>
<path d="M2670 5370 l0 -70 65 0 65 0 0 70 0 70 -65 0 -65 0 0 -70z"/>
<path d="M2830 5370 l0 -70 70 0 70 0 0 70 0 70 -70 0 -70 0 0 -70z"/>
<path d="M3000 5370 l0 -70 70 0 70 0 0 70 0 70 -70 0 -70 0 0 -70z"/>
<path d="M3170 5370 l0 -70 65 0 65 0 0 70 0 70 -65 0 -65 0 0 -70z"/>
<path d="M4099 5375 c-16 -35 -29 -67 -29 -70 0 -3 18 -5 40 -5 l40 0 0 70 c0
43 -4 70 -11 70 -5 0 -23 -29 -40 -65z"/>
<path d="M4170 5370 l0 -70 65 0 65 0 0 70 0 70 -65 0 -65 0 0 -70z"/>
<path d="M4330 5370 l0 -70 75 0 75 0 0 70 0 70 -75 0 -75 0 0 -70z"/>
<path d="M4500 5370 l0 -70 75 0 75 0 0 70 0 70 -75 0 -75 0 0 -70z"/>
<path d="M4680 5395 c0 -25 2 -45 4 -45 2 0 16 20 29 45 l26 45 -30 0 c-28 0
-29 -2 -29 -45z"/>
<path d="M5593 5376 c-24 -35 -43 -67 -43 -70 0 -3 23 -6 50 -6 l50 0 0 70 c0
39 -3 70 -7 70 -5 0 -27 -29 -50 -64z"/>
<path d="M5680 5370 l0 -70 65 0 65 0 0 70 0 70 -65 0 -65 0 0 -70z"/>
<path d="M5840 5408 c0 -18 -3 -50 -6 -70 l-7 -38 77 0 76 0 0 70 0 70 -70 0
-70 0 0 -32z"/>
<path d="M6000 5370 l0 -70 75 0 75 0 0 70 0 70 -75 0 -75 0 0 -70z"/>
<path d="M6170 5370 l0 -70 70 0 70 0 0 70 0 70 -70 0 -70 0 0 -70z"/>
<path d="M6330 5370 l0 -70 75 0 75 0 0 70 0 70 -75 0 -75 0 0 -70z"/>
<path d="M6500 5370 l0 -70 80 0 80 0 0 70 0 70 -80 0 -80 0 0 -70z"/>
<path d="M6680 5370 l0 -70 65 0 65 0 0 70 0 70 -65 0 -65 0 0 -70z"/>
<path d="M6830 5370 l0 -70 75 0 75 0 0 70 0 70 -75 0 -75 0 0 -70z"/>
<path d="M7000 5370 l0 -70 80 0 80 0 0 70 0 70 -80 0 -80 0 0 -70z"/>
<path d="M7180 5370 l0 -70 65 0 65 0 0 70 0 70 -65 0 -65 0 0 -70z"/>
<path d="M7330 5370 l0 -70 80 0 80 0 0 70 0 70 -80 0 -80 0 0 -70z"/>
<path d="M7510 5370 l0 -70 75 0 75 0 0 70 0 70 -75 0 -75 0 0 -70z"/>
<path d="M7680 5370 l0 -70 65 0 65 0 0 70 0 70 -65 0 -65 0 0 -70z"/>
<path d="M3330 5361 l0 -61 70 0 70 0 0 35 c0 33 -4 37 -46 55 -25 11 -57 23
-70 26 -23 6 -24 5 -24 -55z"/>
<path d="M7840 5357 l0 -57 51 0 52 0 -43 48 c-24 26 -47 51 -52 57 -4 5 -8
-16 -8 -48z"/>
<path d="M3500 5329 l0 -29 73 0 c80 1 77 7 -18 40 l-55 19 0 -30z"/>
<path d="M5724 5273 l-42 -4 -7 -64 c-3 -36 -4 -69 0 -75 3 -5 35 -10 71 -10
l64 0 0 80 c0 90 10 81 -86 73z"/>
<path d="M5837 5273 c-4 -3 -7 -39 -7 -80 l0 -73 75 0 75 0 0 80 0 80 -68 0
c-38 0 -72 -3 -75 -7z"/>
<path d="M6004 5266 c-3 -7 -4 -42 -2 -77 l3 -64 73 -3 72 -3 0 81 0 80 -70 0
c-50 0 -72 -4 -76 -14z"/>
<path d="M6174 5266 c-3 -7 -4 -42 -2 -77 l3 -64 34 -3 c19 -2 50 -1 68 3 l33
6 0 74 0 75 -65 0 c-46 0 -67 -4 -71 -14z"/>
<path d="M6334 5266 c-3 -7 -4 -42 -2 -77 l3 -64 73 -3 72 -3 0 81 0 80 -70 0
c-50 0 -72 -4 -76 -14z"/>
<path d="M6504 5267 c-3 -8 -4 -43 -2 -78 l3 -64 78 -3 78 -3 -3 78 -3 78 -73
3 c-55 2 -74 -1 -78 -11z"/>
<path d="M6675 5227 c-12 -98 -10 -102 68 -105 l67 -3 0 81 0 80 -64 0 -65 0
-6 -53z"/>
<path d="M6837 5273 c-4 -3 -7 -39 -7 -80 l0 -73 75 0 75 0 0 80 0 80 -68 0
c-38 0 -72 -3 -75 -7z"/>
<path d="M7004 5267 c-3 -8 -4 -43 -2 -78 l3 -64 75 0 75 0 0 75 0 75 -73 3
c-55 2 -74 -1 -78 -11z"/>
<path d="M7180 5200 l0 -80 65 0 65 0 0 80 0 80 -65 0 -65 0 0 -80z"/>
<path d="M7334 5267 c-3 -8 -4 -43 -2 -78 l3 -64 78 -3 78 -3 -3 78 -3 78 -73
3 c-55 2 -74 -1 -78 -11z"/>
<path d="M7505 5211 c-4 -39 -4 -75 0 -80 3 -6 39 -11 81 -11 l74 0 0 80 0 80
-74 0 -74 0 -7 -69z"/>
<path d="M2586 5248 c-3 -13 -6 -44 -6 -70 0 -47 1 -48 30 -48 l30 0 0 70 c0
67 -1 70 -24 70 -16 0 -26 -7 -30 -22z"/>
<path d="M2670 5200 l0 -70 65 0 65 0 0 70 0 70 -65 0 -65 0 0 -70z"/>
<path d="M2830 5200 l0 -70 70 0 70 0 0 70 0 70 -70 0 -70 0 0 -70z"/>
<path d="M3000 5200 l0 -70 70 0 70 0 0 70 0 70 -70 0 -70 0 0 -70z"/>
<path d="M3170 5200 l0 -70 65 0 65 0 0 70 0 70 -65 0 -65 0 0 -70z"/>
<path d="M3330 5200 l0 -70 70 0 70 0 0 70 0 70 -70 0 -70 0 0 -70z"/>
<path d="M3500 5200 l0 -70 75 0 75 0 0 70 0 70 -75 0 -75 0 0 -70z"/>
<path d="M3670 5200 l0 -70 65 0 65 0 0 54 c0 54 0 54 -40 70 -22 9 -52 16
-65 16 -24 0 -25 -2 -25 -70z"/>
<path d="M4038 5231 c-16 -39 -16 -39 16 -70 22 -22 42 -31 64 -31 l32 0 0 70
0 70 -48 0 c-48 0 -49 -1 -64 -39z"/>
<path d="M4170 5200 l0 -70 65 0 65 0 0 70 0 70 -65 0 -65 0 0 -70z"/>
<path d="M4330 5200 l0 -70 63 0 c36 0 68 5 75 12 7 7 12 38 12 70 l0 58 -75
0 -75 0 0 -70z"/>
<path d="M4500 5225 c0 -25 3 -45 8 -45 4 0 31 21 60 45 l54 45 -61 0 -61 0 0
-45z"/>
<path d="M5521 5233 c-6 -21 -11 -52 -11 -69 0 -30 2 -31 53 -38 93 -11 87
-15 87 69 l0 75 -60 0 -59 0 -10 -37z"/>
<path d="M7680 5195 l0 -75 64 0 c36 0 67 3 69 8 2 4 2 37 -1 75 l-4 67 -64 0
-64 0 0 -75z"/>
<path d="M7840 5205 c0 -36 -1 -68 -1 -72 -2 -8 132 -5 140 3 2 2 4 32 5 66
l1 63 -72 3 -73 3 0 -66z"/>
<path d="M8010 5191 l0 -61 75 0 75 0 0 34 c0 32 -3 34 -62 56 -35 13 -69 25
-75 27 -10 4 -13 -11 -13 -56z"/>
<path d="M3830 5170 l0 -40 56 0 c34 0 53 4 49 10 -7 11 -90 70 -99 70 -3 0
-6 -18 -6 -40z"/>
<path d="M8180 5159 l0 -29 65 0 c70 0 85 13 33 29 -18 5 -48 14 -65 20 -32 9
-33 9 -33 -20z"/>
<path d="M6710 5101 l-35 -6 0 -70 0 -70 68 -3 67 -3 0 81 0 80 -32 -1 c-18
-1 -49 -4 -68 -8z"/>
<path d="M6837 5103 c-4 -3 -7 -39 -7 -80 l0 -73 75 0 75 0 0 80 0 80 -68 0
c-38 0 -72 -3 -75 -7z"/>
<path d="M7388 5103 l-58 -4 0 -74 0 -75 80 0 81 0 -3 78 c-3 87 4 82 -100 75z"/>
<path d="M7507 5104 c-4 -4 -7 -40 -7 -81 l0 -73 80 0 81 0 -3 78 -3 77 -70 3
c-39 1 -74 0 -78 -4z"/>
<path d="M7687 5103 c-4 -3 -7 -39 -7 -80 l0 -73 70 0 70 0 0 74 c0 58 -3 75
-16 80 -21 8 -109 8 -117 -1z"/>
<path d="M2585 5053 c8 -55 25 -95 43 -101 9 -3 12 16 12 72 l0 76 -31 0 -31
0 7 -47z"/>
<path d="M2672 5028 l3 -73 63 -3 62 -3 0 76 0 75 -65 0 -66 0 3 -72z"/>
<path d="M2830 5025 l0 -75 70 0 70 0 0 75 0 75 -70 0 -70 0 0 -75z"/>
<path d="M3000 5025 l0 -75 70 0 70 0 0 75 0 75 -70 0 -70 0 0 -75z"/>
<path d="M3170 5025 l0 -75 65 0 65 0 0 75 0 75 -65 0 -65 0 0 -75z"/>
<path d="M3330 5025 l0 -75 70 0 70 0 0 75 0 75 -70 0 -70 0 0 -75z"/>
<path d="M3502 5028 l3 -73 70 0 70 0 3 73 3 72 -76 0 -76 0 3 -72z"/>
<path d="M3674 5086 c-3 -7 -4 -40 -2 -72 l3 -59 63 -3 62 -3 0 76 0 75 -60 0
c-42 0 -62 -4 -66 -14z"/>
<path d="M3830 5025 l0 -75 75 0 75 0 0 75 0 75 -75 0 -75 0 0 -75z"/>
<path d="M4135 5090 c3 -5 8 -10 11 -10 2 0 4 5 4 10 0 6 -5 10 -11 10 -5 0
-7 -4 -4 -10z"/>
<path d="M4170 5084 c0 -19 100 -134 117 -134 9 0 13 21 13 75 l0 75 -65 0
c-52 0 -65 -3 -65 -16z"/>
<path d="M4330 5024 c0 -95 11 -94 63 4 l38 72 -51 0 -50 0 0 -76z"/>
<path d="M5510 5025 l0 -75 70 0 70 0 0 75 0 75 -70 0 -70 0 0 -75z"/>
<path d="M5670 5025 l0 -75 70 0 70 0 0 75 0 75 -70 0 -70 0 0 -75z"/>
<path d="M5830 5025 l0 -75 75 0 75 0 0 75 0 75 -75 0 -75 0 0 -75z"/>
<path d="M6000 5048 c0 -95 2 -98 81 -98 l69 0 0 75 0 75 -75 0 -75 0 0 -52z"/>
<path d="M6174 5084 c3 -9 6 -42 6 -75 l0 -59 65 0 65 0 0 75 0 75 -71 0 c-61
0 -70 -2 -65 -16z"/>
<path d="M6340 5025 l0 -75 70 0 70 0 0 75 0 75 -70 0 -70 0 0 -75z"/>
<path d="M6500 5025 l0 -75 80 0 80 0 0 75 0 75 -80 0 -80 0 0 -75z"/>
<path d="M7000 5025 l0 -75 80 0 80 0 0 75 0 75 -80 0 -80 0 0 -75z"/>
<path d="M7180 5025 l0 -75 65 0 65 0 0 75 0 75 -65 0 -65 0 0 -75z"/>
<path d="M7830 5025 l0 -75 80 0 c91 0 86 -6 74 98 l-7 52 -73 0 -74 0 0 -75z"/>
<path d="M8010 5025 l0 -75 75 0 75 0 0 75 0 75 -75 0 -75 0 0 -75z"/>
<path d="M8180 5025 l0 -75 65 0 65 0 0 75 0 75 -65 0 -65 0 0 -75z"/>
<path d="M8340 5025 l0 -75 75 0 75 0 0 38 c0 20 -4 42 -8 48 -15 24 -86 64
-113 64 l-29 0 0 -75z"/>
<path d="M4000 5010 l0 -60 72 0 73 0 -65 60 c-36 32 -68 59 -72 60 -5 0 -8
-27 -8 -60z"/>
<path d="M8510 4982 c0 -27 4 -32 25 -32 14 0 25 4 25 8 0 5 -11 19 -25 32
l-25 23 0 -31z"/>
<path d="M2713 4923 c-42 -4 -43 -5 -43 -41 0 -60 22 -82 81 -82 l49 0 0 65
c0 73 9 66 -87 58z"/>
<path d="M2830 4865 l0 -65 70 0 70 0 0 65 0 65 -70 0 -70 0 0 -65z"/>
<path d="M3000 4866 l0 -63 38 -7 c20 -3 54 -6 76 -6 35 0 38 2 32 23 -3 12
-6 43 -6 70 l0 47 -70 0 -70 0 0 -64z"/>
<path d="M3177 4923 c-4 -3 -7 -35 -7 -71 0 -62 1 -64 23 -58 12 3 41 6 65 6
l42 0 0 65 0 65 -58 0 c-32 0 -62 -3 -65 -7z"/>
<path d="M3330 4866 l0 -66 70 0 70 0 0 60 0 60 -47 0 c-27 0 -58 3 -70 6 -22
6 -23 4 -23 -60z"/>
<path d="M3723 4923 l-43 -4 0 -60 0 -59 60 0 60 0 0 65 c0 56 -2 65 -17 63
-10 -1 -37 -3 -60 -5z"/>
<path d="M3837 4924 c-4 -4 -7 -34 -7 -66 l0 -58 75 0 76 0 -3 63 -3 62 -65 3
c-36 2 -69 0 -73 -4z"/>
<path d="M4007 4923 c-4 -3 -7 -33 -7 -65 l0 -58 75 0 75 0 0 65 0 65 -68 0
c-38 0 -72 -3 -75 -7z"/>
<path d="M5523 4923 c-9 -3 -13 -26 -13 -64 l0 -59 48 0 c26 0 57 -3 70 -6 21
-6 22 -4 22 65 l0 71 -57 -1 c-32 0 -64 -3 -70 -6z"/>
<path d="M5670 4865 l0 -65 70 0 70 0 0 65 0 65 -70 0 -70 0 0 -65z"/>
<path d="M5834 4893 c3 -21 6 -50 6 -65 0 -28 0 -28 70 -28 l70 0 0 65 0 65
-76 0 -77 0 7 -37z"/>
<path d="M6010 4865 l0 -65 33 0 c17 0 49 -3 70 -6 l37 -7 0 72 0 71 -70 0
-70 0 0 -65z"/>
<path d="M6178 4864 c-1 -36 -1 -68 1 -70 2 -2 33 -4 68 -4 l63 0 0 70 0 70
-64 0 -64 0 -4 -66z"/>
<path d="M6330 4860 l0 -70 75 0 75 0 0 70 0 70 -75 0 -75 0 0 -70z"/>
<path d="M6500 4860 l0 -70 80 0 80 0 0 70 0 70 -80 0 -80 0 0 -70z"/>
<path d="M6674 4916 c-3 -7 -4 -38 -2 -67 l3 -54 68 -3 67 -3 0 71 0 70 -65 0
c-46 0 -67 -4 -71 -14z"/>
<path d="M6830 4860 l0 -70 75 0 75 0 0 70 0 70 -75 0 -75 0 0 -70z"/>
<path d="M7002 4863 l3 -68 78 -3 77 -3 0 71 0 70 -80 0 -81 0 3 -67z"/>
<path d="M7180 4860 l0 -70 65 0 65 0 0 70 0 70 -65 0 -65 0 0 -70z"/>
<path d="M7330 4860 l0 -71 78 3 77 3 3 68 3 67 -81 0 -80 0 0 -70z"/>
<path d="M7502 4863 l3 -68 78 -3 77 -3 0 71 0 70 -80 0 -81 0 3 -67z"/>
<path d="M7680 4860 l0 -70 70 0 70 0 0 70 0 70 -70 0 -70 0 0 -70z"/>
<path d="M7830 4860 l0 -70 80 0 80 0 0 70 0 70 -80 0 -80 0 0 -70z"/>
<path d="M8007 4868 c-3 -34 -3 -66 -1 -70 3 -4 39 -8 80 -8 l74 0 0 70 0 70
-74 0 -73 0 -6 -62z"/>
<path d="M8187 4923 c-4 -3 -7 -35 -7 -70 l0 -63 65 0 65 0 0 70 0 70 -58 0
c-32 0 -62 -3 -65 -7z"/>
<path d="M8340 4866 c0 -36 5 -68 10 -71 6 -4 40 -3 76 0 l65 7 -3 62 -3 61
-72 3 -73 3 0 -65z"/>
<path d="M8510 4865 l0 -65 75 0 75 0 0 28 c0 43 -65 102 -113 102 l-37 0 0
-65z"/>
<path d="M3500 4860 l0 -60 75 0 75 0 0 60 0 60 -75 0 -75 0 0 -60z"/>
<path d="M5440 4911 c0 -5 -22 -27 -50 -48 -68 -53 -65 -63 20 -63 l70 0 0 60
c0 53 -2 60 -20 60 -11 0 -20 -4 -20 -9z"/>
<path d="M4170 4858 l0 -58 46 0 45 0 -20 28 c-11 15 -31 41 -45 57 l-25 30
-1 -57z"/>
<path d="M8690 4810 c0 -5 5 -10 11 -10 5 0 7 5 4 10 -3 6 -8 10 -11 10 -2 0
-4 -4 -4 -10z"/>
<path d="M2730 4762 c0 -4 16 -23 35 -42 l35 -34 0 42 c0 41 -1 42 -35 42 -19
0 -35 -4 -35 -8z"/>
<path d="M2830 4720 c0 -47 2 -50 38 -69 20 -10 52 -22 70 -26 l32 -7 0 76 0
76 -70 0 -70 0 0 -50z"/>
<path d="M3000 4700 l0 -70 69 0 69 0 6 31 c3 17 6 49 6 70 l0 39 -75 0 -75 0
0 -70z"/>
<path d="M3170 4700 l0 -70 65 0 65 0 0 70 0 70 -65 0 -65 0 0 -70z"/>
<path d="M3330 4700 l0 -70 70 0 70 0 0 70 0 70 -70 0 -70 0 0 -70z"/>
<path d="M3500 4700 l0 -70 75 0 75 0 0 70 0 70 -75 0 -75 0 0 -70z"/>
<path d="M3680 4700 l0 -70 60 0 60 0 0 70 0 70 -60 0 -60 0 0 -70z"/>
<path d="M3832 4698 l3 -73 70 0 70 0 3 73 3 72 -76 0 -76 0 3 -72z"/>
<path d="M4002 4698 l3 -73 70 0 70 0 3 73 3 72 -76 0 -76 0 3 -72z"/>
<path d="M4170 4701 c0 -39 5 -73 10 -76 6 -4 35 -3 65 0 l55 7 0 69 0 69 -65
0 -65 0 0 -69z"/>
<path d="M5223 4738 c-38 -28 -43 -36 -43 -70 l0 -38 65 0 65 0 0 70 c0 66 -1
70 -22 70 -13 -1 -42 -15 -65 -32z"/>
<path d="M5340 4700 l0 -70 70 0 70 0 0 70 0 70 -70 0 -70 0 0 -70z"/>
<path d="M5510 4700 l0 -70 70 0 70 0 0 70 0 70 -70 0 -70 0 0 -70z"/>
<path d="M5680 4700 l0 -70 65 0 65 0 0 70 0 70 -65 0 -65 0 0 -70z"/>
<path d="M5840 4711 c0 -33 -3 -66 -6 -75 -5 -14 5 -16 70 -16 l76 0 0 75 0
75 -70 0 -70 0 0 -59z"/>
<path d="M6006 4748 c-3 -13 -6 -47 -6 -75 l0 -53 75 0 75 0 0 75 0 75 -69 0
c-63 0 -69 -2 -75 -22z"/>
<path d="M6172 4698 l3 -73 68 -3 67 -3 0 76 0 75 -70 0 -71 0 3 -72z"/>
<path d="M6330 4695 l0 -75 75 0 75 0 0 75 0 75 -75 0 -75 0 0 -75z"/>
<path d="M6500 4695 l0 -75 80 0 80 0 0 75 0 75 -80 0 -80 0 0 -75z"/>
<path d="M6670 4695 l0 -75 70 0 70 0 0 75 0 75 -70 0 -70 0 0 -75z"/>
<path d="M6830 4695 l0 -75 75 0 75 0 0 75 0 75 -75 0 -75 0 0 -75z"/>
<path d="M7002 4698 l3 -73 78 -3 77 -3 0 76 0 75 -80 0 -81 0 3 -72z"/>
<path d="M7180 4695 l0 -75 65 0 65 0 0 75 0 75 -65 0 -65 0 0 -75z"/>
<path d="M7330 4695 l0 -76 78 3 77 3 3 73 3 72 -81 0 -80 0 0 -75z"/>
<path d="M7502 4698 l3 -73 78 -3 77 -3 0 76 0 75 -80 0 -81 0 3 -72z"/>
<path d="M7680 4695 l0 -75 70 0 70 0 0 75 0 75 -70 0 -70 0 0 -75z"/>
<path d="M7830 4695 l0 -75 80 0 80 0 0 75 0 75 -80 0 -80 0 0 -75z"/>
<path d="M8000 4695 l0 -75 80 0 80 0 0 75 0 75 -80 0 -80 0 0 -75z"/>
<path d="M8180 4695 l0 -75 70 0 70 0 0 75 0 75 -70 0 -70 0 0 -75z"/>
<path d="M8330 4695 l0 -75 80 0 80 0 0 75 0 75 -80 0 -80 0 0 -75z"/>
<path d="M8510 4695 l0 -75 75 0 75 0 0 75 0 75 -75 0 -75 0 0 -75z"/>
<path d="M8690 4695 l0 -75 65 0 65 0 0 30 c0 39 -71 120 -106 120 -23 0 -24
-3 -24 -75z"/>
<path d="M4330 4687 l0 -57 75 0 c41 0 75 4 75 9 0 5 -26 24 -57 41 -32 18
-66 39 -75 48 -17 14 -18 12 -18 -41z"/>
<path d="M5115 4650 c-18 -20 -17 -20 8 -20 20 0 27 5 27 20 0 11 -4 20 -8 20
-5 0 -17 -9 -27 -20z"/>
<path d="M7868 4603 l-38 -4 0 -70 0 -69 80 0 80 0 0 75 0 75 -42 -2 c-24 -1
-60 -3 -80 -5z"/>
<path d="M8007 4603 c-4 -3 -7 -37 -7 -75 l0 -68 80 0 80 0 0 75 0 75 -73 0
c-41 0 -77 -3 -80 -7z"/>
<path d="M8180 4535 l0 -75 70 0 71 0 -3 73 -3 72 -67 3 -68 3 0 -76z"/>
<path d="M8337 4604 c-4 -4 -7 -38 -7 -76 l0 -68 80 0 81 0 -3 73 -3 72 -70 3
c-39 1 -74 0 -78 -4z"/>
<path d="M3000 4591 c0 -4 32 -27 70 -49 l70 -40 0 49 0 49 -70 0 c-38 0 -70
-4 -70 -9z"/>
<path d="M3172 4538 l3 -63 63 -3 62 -3 0 66 0 65 -65 0 -66 0 3 -62z"/>
<path d="M3330 4535 l0 -65 70 0 70 0 0 65 0 65 -70 0 -70 0 0 -65z"/>
<path d="M3507 4594 c-4 -4 -7 -34 -7 -66 l0 -58 75 0 76 0 -3 63 -3 62 -65 3
c-36 2 -69 0 -73 -4z"/>
<path d="M3680 4535 l0 -65 60 0 60 0 0 65 0 65 -60 0 -60 0 0 -65z"/>
<path d="M3830 4537 c0 -64 0 -65 31 -71 17 -3 51 -6 76 -6 l44 0 -3 68 -3 67
-72 3 -73 3 0 -64z"/>
<path d="M4000 4530 l0 -70 75 0 75 0 0 70 0 70 -75 0 -75 0 0 -70z"/>
<path d="M4170 4530 l0 -70 65 0 65 0 0 70 0 70 -65 0 -65 0 0 -70z"/>
<path d="M4330 4535 l0 -65 75 0 76 0 -3 63 -3 62 -72 3 -73 3 0 -66z"/>
<path d="M4507 4593 c-9 -8 -9 -86 -1 -107 5 -12 21 -16 75 -16 l69 0 0 53 0
54 -51 11 c-57 14 -83 15 -92 5z"/>
<path d="M5243 4570 c33 -17 61 -30 64 -30 2 0 3 12 1 28 -3 26 -6 27 -63 29
l-60 3 58 -30z"/>
<path d="M5340 4547 c0 -29 5 -58 12 -65 7 -7 38 -12 70 -12 l58 0 0 65 0 65
-70 0 -70 0 0 -53z"/>
<path d="M5510 4536 l0 -64 70 -4 70 -3 0 68 0 67 -70 0 -70 0 0 -64z"/>
<path d="M5675 4545 c-10 -80 -7 -85 70 -85 l65 0 0 70 0 70 -64 0 -65 0 -6
-55z"/>
<path d="M5830 4530 l0 -70 75 0 75 0 0 70 0 70 -75 0 -75 0 0 -70z"/>
<path d="M6000 4530 l0 -70 75 0 75 0 0 70 0 70 -75 0 -75 0 0 -70z"/>
<path d="M6172 4533 l3 -68 68 -3 67 -3 0 71 0 70 -70 0 -71 0 3 -67z"/>
<path d="M6330 4530 l0 -70 75 0 75 0 0 70 0 70 -75 0 -75 0 0 -70z"/>
<path d="M6502 4533 l3 -68 75 0 75 0 3 68 3 67 -81 0 -81 0 3 -67z"/>
<path d="M6672 4533 l3 -68 68 -3 67 -3 0 71 0 70 -70 0 -71 0 3 -67z"/>
<path d="M6830 4530 l0 -70 75 0 75 0 0 70 0 70 -75 0 -75 0 0 -70z"/>
<path d="M7002 4533 l3 -68 78 -3 77 -3 0 71 0 70 -80 0 -81 0 3 -67z"/>
<path d="M7180 4530 l0 -70 65 0 65 0 0 70 0 70 -65 0 -65 0 0 -70z"/>
<path d="M7330 4530 l0 -71 78 3 77 3 3 68 3 67 -81 0 -80 0 0 -70z"/>
<path d="M7504 4586 c-3 -7 -4 -38 -2 -67 l3 -54 78 -3 77 -3 0 71 0 70 -75 0
c-55 0 -77 -4 -81 -14z"/>
<path d="M7680 4530 l0 -71 68 3 67 3 3 68 3 67 -71 0 -70 0 0 -70z"/>
<path d="M8510 4530 l0 -70 75 0 75 0 0 70 0 70 -75 0 -75 0 0 -70z"/>
<path d="M8690 4546 c0 -30 -3 -61 -6 -70 -5 -14 4 -16 59 -16 l65 0 7 59 c4
33 4 65 0 70 -3 6 -33 11 -66 11 l-59 0 0 -54z"/>
<path d="M8840 4536 l0 -66 35 0 c19 0 35 1 35 3 0 2 -11 30 -24 62 -33 82
-46 82 -46 1z"/>
<path d="M4680 4523 l0 -53 60 0 60 0 0 45 c0 49 -2 50 -82 58 l-38 3 0 -53z"/>
<path d="M4830 4511 l0 -41 75 0 75 0 0 29 c0 26 -4 29 -42 35 -24 4 -58 9
-75 12 -33 6 -33 6 -33 -35z"/>
<path d="M5010 4495 c0 -24 2 -25 70 -25 54 0 70 3 70 14 0 9 -19 18 -50 25
-78 17 -90 15 -90 -14z"/>
<path d="M5180 4480 c0 -6 7 -10 15 -10 8 0 15 2 15 4 0 2 -7 6 -15 10 -8 3
-15 1 -15 -4z"/>
<path d="M3231 4437 c2 -2 19 -14 37 -26 l32 -22 0 25 c0 23 -4 26 -37 26 -20
0 -34 -1 -32 -3z"/>
<path d="M3330 4402 c0 -53 50 -102 103 -102 l37 0 0 70 0 70 -70 0 -70 0 0
-38z"/>
<path d="M3500 4371 c0 -80 1 -81 91 -81 l59 0 0 75 0 75 -75 0 -75 0 0 -69z"/>
<path d="M3677 4388 c-13 -103 -16 -98 63 -98 l71 0 -3 73 -3 72 -61 3 -61 3
-6 -53z"/>
<path d="M3827 4433 c-4 -3 -7 -37 -7 -75 l0 -68 80 0 80 0 0 75 0 75 -73 0
c-41 0 -77 -3 -80 -7z"/>
<path d="M4000 4365 l0 -75 75 0 75 0 0 75 0 75 -75 0 -75 0 0 -75z"/>
<path d="M4170 4365 l0 -75 70 0 70 0 0 75 0 75 -70 0 -70 0 0 -75z"/>
<path d="M4330 4365 l0 -76 73 3 72 3 3 73 3 72 -76 0 -75 0 0 -75z"/>
<path d="M4510 4370 l0 -70 70 0 70 0 0 70 0 70 -70 0 -70 0 0 -70z"/>
<path d="M4680 4370 l0 -70 60 0 60 0 0 70 0 70 -60 0 -60 0 0 -70z"/>
<path d="M4830 4370 l0 -70 75 0 75 0 0 70 0 70 -75 0 -75 0 0 -70z"/>
<path d="M5010 4370 l0 -70 70 0 70 0 0 70 0 70 -70 0 -70 0 0 -70z"/>
<path d="M5180 4371 l0 -71 65 0 c61 0 65 1 65 23 0 12 -10 43 -22 67 -21 42
-26 45 -65 48 l-43 3 0 -70z"/>
<path d="M5388 4395 c4 -40 1 -46 -22 -56 -50 -23 -32 -39 44 -39 l70 0 0 70
0 70 -48 0 -47 0 3 -45z"/>
<path d="M5510 4365 l0 -75 70 0 70 0 0 75 0 75 -70 0 -70 0 0 -75z"/>
<path d="M5672 4368 l3 -73 68 -3 67 -3 0 76 0 75 -70 0 -71 0 3 -72z"/>
<path d="M5830 4370 l0 -70 29 0 c15 0 49 3 75 6 l46 7 0 63 0 64 -75 0 -75 0
0 -70z"/>
<path d="M6000 4376 l0 -63 53 -7 c102 -12 97 -15 97 64 l0 70 -75 0 -75 0 0
-64z"/>
<path d="M6172 4373 l3 -68 45 2 c88 4 90 6 90 73 l0 60 -70 0 -71 0 3 -67z"/>
<path d="M6330 4385 c0 -64 1 -64 92 -39 58 17 58 17 58 55 l0 39 -75 0 -75 0
0 -55z"/>
<path d="M6500 4411 c0 -39 7 -42 55 -24 22 9 55 16 73 16 24 0 32 5 32 19 0
16 -9 18 -80 18 l-80 0 0 -29z"/>
<path d="M6670 4423 c0 -29 12 -39 78 -66 l62 -25 0 54 0 54 -70 0 c-60 0 -70
-2 -70 -17z"/>
<path d="M6830 4381 c0 -74 18 -91 97 -91 l53 0 0 75 0 75 -75 0 -75 0 0 -59z"/>
<path d="M7002 4368 l3 -73 78 -3 77 -3 0 76 0 75 -80 0 -81 0 3 -72z"/>
<path d="M7180 4365 l0 -75 65 0 65 0 0 75 0 75 -65 0 -65 0 0 -75z"/>
<path d="M7330 4365 l0 -75 80 0 80 0 0 75 0 75 -80 0 -80 0 0 -75z"/>
<path d="M7502 4368 l3 -73 78 -3 77 -3 0 76 0 75 -80 0 -81 0 3 -72z"/>
<path d="M7680 4365 l0 -75 70 0 70 0 0 75 0 75 -70 0 -70 0 0 -75z"/>
<path d="M7830 4365 l0 -75 80 0 80 0 0 75 0 75 -80 0 -80 0 0 -75z"/>
<path d="M8000 4365 l0 -75 80 0 80 0 0 75 0 75 -80 0 -80 0 0 -75z"/>
<path d="M8180 4365 l0 -75 70 0 70 0 0 75 0 75 -70 0 -70 0 0 -75z"/>
<path d="M8330 4365 l0 -75 80 0 80 0 0 75 0 75 -80 0 -80 0 0 -75z"/>
<path d="M8510 4365 l0 -75 75 0 75 0 0 75 0 75 -75 0 -75 0 0 -75z"/>
<path d="M8680 4366 c0 -50 4 -75 13 -79 6 -2 38 -2 70 1 l57 4 0 58 c0 88 -2
90 -76 90 l-64 0 0 -74z"/>
<path d="M8836 4418 c-3 -13 -6 -47 -6 -75 l0 -53 75 0 75 0 0 31 c0 17 -12
50 -26 75 -24 41 -29 44 -69 44 -36 0 -44 -4 -49 -22z"/>
<path d="M3430 4267 c0 -2 7 -19 17 -37 13 -27 14 -41 6 -72 -8 -30 -7 -38 3
-38 11 0 14 18 14 75 0 68 -2 75 -20 75 -11 0 -20 -2 -20 -3z"/>
<path d="M3502 4198 l3 -73 73 -3 72 -3 0 76 0 75 -75 0 -76 0 3 -72z"/>
<path d="M3670 4195 l0 -75 70 0 70 0 0 75 0 75 -70 0 -70 0 0 -75z"/>
<path d="M3820 4195 l0 -75 80 0 80 0 0 75 0 75 -80 0 -80 0 0 -75z"/>
<path d="M4000 4195 l0 -75 75 0 75 0 0 75 0 75 -75 0 -75 0 0 -75z"/>
<path d="M4170 4195 l0 -75 70 0 70 0 0 75 0 75 -70 0 -70 0 0 -75z"/>
<path d="M4330 4195 l0 -75 75 0 75 0 0 75 0 75 -75 0 -75 0 0 -75z"/>
<path d="M4500 4195 l0 -75 75 0 75 0 0 75 0 75 -75 0 -75 0 0 -75z"/>
<path d="M4676 4239 c-3 -17 -6 -51 -6 -75 l0 -44 70 0 70 0 0 59 c0 88 -3 91
-70 91 -56 0 -58 -1 -64 -31z"/>
<path d="M4837 4263 c-4 -3 -7 -37 -7 -75 l0 -68 75 0 75 0 0 75 0 75 -68 0
c-38 0 -72 -3 -75 -7z"/>
<path d="M5010 4248 c0 -13 -3 -47 -6 -75 l-7 -53 77 0 76 0 0 75 0 75 -70 0
c-66 0 -70 -1 -70 -22z"/>
<path d="M5180 4233 c0 -21 -3 -55 -6 -75 l-7 -38 72 0 72 0 -3 73 -3 72 -62
3 -63 3 0 -38z"/>
<path d="M5336 4239 c-3 -17 -6 -51 -6 -75 0 -44 0 -44 36 -44 20 0 54 10 75
22 38 21 39 23 39 75 l0 53 -69 0 -68 0 -7 -31z"/>
<path d="M5500 4224 c0 -25 4 -44 8 -42 67 26 142 66 142 76 0 8 -22 12 -75
12 l-75 0 0 -46z"/>
<path d="M6935 4245 c38 -31 45 -31 45 0 0 22 -4 25 -37 25 l-38 -1 30 -24z"/>
<path d="M7004 4255 c-13 -33 7 -64 63 -99 86 -54 93 -51 93 39 l0 75 -75 0
c-58 0 -77 -3 -81 -15z"/>
<path d="M7180 4195 l0 -75 65 0 65 0 0 75 0 75 -65 0 -65 0 0 -75z"/>
<path d="M7330 4195 l0 -75 80 0 80 0 0 75 0 75 -80 0 -80 0 0 -75z"/>
<path d="M7500 4195 l0 -75 80 0 80 0 0 75 0 75 -80 0 -80 0 0 -75z"/>
<path d="M7680 4195 l0 -75 70 0 70 0 0 75 0 75 -70 0 -70 0 0 -75z"/>
<path d="M7830 4195 l0 -75 80 0 80 0 0 75 0 75 -80 0 -80 0 0 -75z"/>
<path d="M8000 4195 l0 -75 80 0 80 0 0 75 0 75 -80 0 -80 0 0 -75z"/>
<path d="M8180 4195 l0 -75 70 0 70 0 0 75 0 75 -70 0 -70 0 0 -75z"/>
<path d="M8330 4195 l0 -75 80 0 80 0 0 75 0 75 -80 0 -80 0 0 -75z"/>
<path d="M8510 4195 l0 -75 75 0 75 0 0 75 0 75 -75 0 -75 0 0 -75z"/>
<path d="M8680 4195 l0 -75 70 0 70 0 0 75 0 75 -70 0 -70 0 0 -75z"/>
<path d="M8830 4195 l0 -75 55 0 54 0 10 38 c5 20 13 54 17 75 l6 37 -71 0
-71 0 0 -75z"/>
<path d="M2507 4183 c-4 -3 -7 -19 -7 -35 l0 -28 70 0 70 0 0 35 0 35 -63 0
c-35 0 -67 -3 -70 -7z"/>
<path d="M2670 4155 l0 -35 65 0 c65 0 65 0 65 29 0 26 -3 29 -46 35 -81 11
-84 10 -84 -29z"/>
<path d="M2418 4149 c-21 -11 -38 -22 -38 -24 0 -3 20 -5 45 -5 41 0 45 2 45
25 0 30 -4 30 -52 4z"/>
<path d="M2830 4146 c0 -26 1 -26 70 -26 53 0 70 3 70 14 0 8 -15 16 -37 19
-21 4 -53 9 -70 13 -31 6 -33 5 -33 -20z"/>
<path d="M3008 4123 c7 -3 16 -2 19 1 4 3 -2 6 -13 5 -11 0 -14 -3 -6 -6z"/>
<path d="M8687 4104 c-4 -4 -7 -38 -7 -76 l0 -68 70 0 71 0 -3 73 -3 72 -60 3
c-34 2 -64 0 -68 -4z"/>
<path d="M8838 4104 c-5 -4 -8 -38 -8 -76 l0 -69 37 3 c37 3 38 4 52 65 8 35
12 66 9 69 -10 10 -82 16 -90 8z"/>
<path d="M2677 4093 c-4 -3 -7 -33 -7 -65 l0 -58 65 0 65 0 0 65 0 65 -58 0
c-32 0 -62 -3 -65 -7z"/>
<path d="M2830 4035 l0 -65 48 0 c26 0 57 -3 70 -6 21 -6 22 -4 22 65 l0 71
-70 0 -70 0 0 -65z"/>
<path d="M2997 4038 c-2 -35 -1 -67 3 -71 4 -5 38 -6 74 -2 l66 7 0 58 c0 67
-4 70 -85 70 l-53 0 -5 -62z"/>
<path d="M3533 4093 l-33 -4 0 -60 c0 -55 2 -59 23 -59 12 0 46 -3 75 -6 l52
-7 0 72 0 71 -42 -2 c-24 0 -58 -3 -75 -5z"/>
<path d="M3670 4030 l0 -70 70 0 70 0 0 70 0 70 -70 0 -70 0 0 -70z"/>
<path d="M3820 4030 l0 -70 80 0 80 0 0 70 0 70 -80 0 -80 0 0 -70z"/>
<path d="M4000 4030 l0 -70 75 0 75 0 0 70 0 70 -75 0 -75 0 0 -70z"/>
<path d="M4170 4030 l0 -70 70 0 70 0 0 70 0 70 -70 0 -70 0 0 -70z"/>
<path d="M4330 4030 l0 -70 75 0 75 0 0 70 0 70 -75 0 -75 0 0 -70z"/>
<path d="M4500 4030 l0 -70 75 0 75 0 0 70 0 70 -75 0 -75 0 0 -70z"/>
<path d="M4670 4030 l0 -70 70 0 70 0 0 70 0 70 -70 0 -70 0 0 -70z"/>
<path d="M4830 4030 l0 -70 75 0 75 0 0 70 0 70 -75 0 -75 0 0 -70z"/>
<path d="M5000 4030 l0 -70 75 0 75 0 0 70 0 70 -75 0 -75 0 0 -70z"/>
<path d="M5170 4030 c0 -49 4 -70 13 -70 6 0 38 21 70 46 41 33 57 52 57 70 0
23 -3 24 -70 24 l-70 0 0 -70z"/>
<path d="M5330 4085 c0 -13 4 -14 20 -5 11 6 20 13 20 15 0 3 -9 5 -20 5 -11
0 -20 -7 -20 -15z"/>
<path d="M7230 4070 c70 -37 80 -37 80 0 l0 30 -67 0 -68 -1 55 -29z"/>
<path d="M7330 4066 c0 -39 6 -45 79 -74 80 -33 81 -32 81 43 l0 65 -80 0 -80
0 0 -34z"/>
<path d="M7504 4086 c-3 -7 -4 -38 -2 -67 l3 -54 78 -3 77 -3 0 71 0 70 -75 0
c-55 0 -77 -4 -81 -14z"/>
<path d="M7680 4030 l0 -70 70 0 70 0 0 70 0 70 -70 0 -70 0 0 -70z"/>
<path d="M7830 4030 l0 -70 80 0 80 0 0 70 0 70 -80 0 -80 0 0 -70z"/>
<path d="M8000 4030 l0 -70 80 0 80 0 0 70 0 70 -80 0 -80 0 0 -70z"/>
<path d="M8180 4030 l0 -70 70 0 70 0 0 70 0 70 -70 0 -70 0 0 -70z"/>
<path d="M8330 4030 l0 -70 80 0 80 0 0 70 0 70 -80 0 -80 0 0 -70z"/>
<path d="M8510 4030 l0 -70 75 0 75 0 0 70 0 70 -75 0 -75 0 0 -70z"/>
<path d="M2330 4030 l0 -60 70 0 70 0 0 60 0 60 -70 0 -70 0 0 -60z"/>
<path d="M2500 4030 l0 -60 70 0 70 0 0 60 0 60 -70 0 -70 0 0 -60z"/>
<path d="M3170 4031 l0 -61 65 0 65 0 0 49 c0 49 0 49 -37 55 -21 4 -50 9 -65
12 l-28 6 0 -61z"/>
<path d="M3368 4077 c-37 -10 -38 -12 -38 -59 l0 -48 70 0 70 0 0 60 0 60 -32
-1 c-18 -1 -50 -6 -70 -12z"/>
<path d="M2283 4005 c-9 -29 -9 -35 3 -35 9 0 14 12 14 35 0 19 -1 35 -3 35
-2 0 -8 -16 -14 -35z"/>
<path d="M2236 3903 c-10 -21 -25 -53 -32 -70 l-14 -33 55 0 55 0 0 70 c0 67
-1 70 -23 70 -17 0 -28 -10 -41 -37z"/>
<path d="M2330 3870 l0 -70 70 0 70 0 0 70 0 70 -70 0 -70 0 0 -70z"/>
<path d="M2500 3870 l0 -70 70 0 70 0 0 70 0 70 -70 0 -70 0 0 -70z"/>
<path d="M2670 3871 l0 -68 46 -7 c88 -12 84 -15 84 69 l0 75 -65 0 -65 0 0
-69z"/>
<path d="M2826 3888 c-12 -104 -16 -98 69 -98 l75 0 0 75 0 75 -69 0 -68 0 -7
-52z"/>
<path d="M2992 3868 l3 -73 79 -3 79 -3 -7 47 c-3 26 -6 60 -6 75 l0 29 -75 0
-76 0 3 -72z"/>
<path d="M3170 3864 l0 -77 46 7 c26 3 55 6 65 6 17 0 19 8 19 70 l0 70 -65 0
-65 0 0 -76z"/>
<path d="M3330 3871 l0 -69 70 -4 70 -3 0 73 0 72 -70 0 -70 0 0 -69z"/>
<path d="M3500 3865 l0 -75 75 0 75 0 0 75 0 75 -75 0 -75 0 0 -75z"/>
<path d="M3670 3865 l0 -75 70 0 70 0 0 75 0 75 -70 0 -70 0 0 -75z"/>
<path d="M3820 3865 l0 -75 80 0 80 0 0 75 0 75 -80 0 -80 0 0 -75z"/>
<path d="M4000 3865 l0 -75 75 0 75 0 0 75 0 75 -75 0 -75 0 0 -75z"/>
<path d="M4170 3865 l0 -75 70 0 70 0 0 75 0 75 -70 0 -70 0 0 -75z"/>
<path d="M4330 3865 l0 -75 75 0 75 0 0 75 0 75 -75 0 -75 0 0 -75z"/>
<path d="M4500 3865 l0 -75 75 0 75 0 0 75 0 75 -75 0 -75 0 0 -75z"/>
<path d="M4670 3865 l0 -75 70 0 70 0 0 75 0 75 -70 0 -70 0 0 -75z"/>
<path d="M4830 3865 l0 -75 75 0 75 0 0 75 0 75 -75 0 -75 0 0 -75z"/>
<path d="M5000 3870 c0 -38 3 -70 6 -70 10 0 144 122 144 131 0 5 -34 9 -75 9
l-75 0 0 -70z"/>
<path d="M7605 3920 c52 -24 55 -24 55 0 0 17 -6 20 -47 19 l-48 0 40 -19z"/>
<path d="M7680 3915 c0 -20 11 -30 60 -55 33 -16 64 -30 70 -30 6 0 10 24 10
55 l0 55 -70 0 c-68 0 -70 -1 -70 -25z"/>
<path d="M7830 3879 c0 -77 12 -88 98 -89 l62 0 0 75 0 75 -80 0 -80 0 0 -61z"/>
<path d="M8002 3868 l3 -73 78 -3 77 -3 0 76 0 75 -80 0 -81 0 3 -72z"/>
<path d="M8180 3865 l0 -75 70 0 70 0 0 75 0 75 -70 0 -70 0 0 -75z"/>
<path d="M8330 3865 l0 -75 80 0 80 0 0 75 0 75 -80 0 -80 0 0 -75z"/>
<path d="M8510 3865 l0 -75 75 0 75 0 0 75 0 75 -75 0 -75 0 0 -75z"/>
<path d="M8680 3865 l0 -75 70 0 70 0 0 75 0 75 -70 0 -70 0 0 -75z"/>
<path d="M8830 3864 c0 -96 16 -95 46 4 l22 72 -34 0 -34 0 0 -76z"/>
<path d="M7910 3773 c1 -4 19 -21 41 -36 l40 -28 -3 33 c-3 30 -6 33 -40 36
-21 2 -38 0 -38 -5z"/>
<path d="M8007 3773 c-11 -11 -8 -58 6 -75 18 -24 108 -78 129 -78 16 0 18 9
18 74 0 58 -3 75 -16 80 -21 8 -129 8 -137 -1z"/>
<path d="M8388 3773 l-58 -4 0 -74 0 -75 80 0 80 0 0 80 c0 77 -1 80 -22 78
-13 -1 -49 -3 -80 -5z"/>
<path d="M8510 3700 l0 -80 75 0 75 0 0 80 0 80 -75 0 -75 0 0 -80z"/>
<path d="M8680 3700 l0 -80 58 0 59 0 11 39 c7 21 12 57 12 80 l0 41 -70 0
-70 0 0 -80z"/>
<path d="M2176 3754 c-3 -9 -6 -42 -6 -75 l0 -59 65 0 65 0 0 75 0 75 -59 0
c-44 0 -60 -4 -65 -16z"/>
<path d="M2330 3695 l0 -75 70 0 70 0 0 75 0 75 -70 0 -70 0 0 -75z"/>
<path d="M2500 3695 l0 -75 76 0 77 0 -7 53 c-3 28 -6 62 -6 75 0 21 -4 22
-70 22 l-70 0 0 -75z"/>
<path d="M2670 3695 l0 -75 65 0 65 0 0 75 0 75 -65 0 -65 0 0 -75z"/>
<path d="M2820 3695 l0 -75 75 0 75 0 0 75 0 75 -75 0 -75 0 0 -75z"/>
<path d="M2990 3695 l0 -75 80 0 80 0 0 75 0 75 -80 0 -80 0 0 -75z"/>
<path d="M3170 3695 l0 -75 65 0 65 0 0 75 0 75 -65 0 -65 0 0 -75z"/>
<path d="M3325 3747 c-4 -13 -5 -46 -3 -73 l3 -49 78 -3 77 -3 0 76 0 75 -75
0 c-70 0 -75 -2 -80 -23z"/>
<path d="M3500 3695 l0 -75 75 0 75 0 0 75 0 75 -75 0 -75 0 0 -75z"/>
<path d="M3670 3695 l0 -75 70 0 70 0 0 75 0 75 -70 0 -70 0 0 -75z"/>
<path d="M3820 3695 l0 -75 80 0 80 0 0 75 0 75 -80 0 -80 0 0 -75z"/>
<path d="M4000 3695 l0 -75 75 0 75 0 0 75 0 75 -75 0 -75 0 0 -75z"/>
<path d="M4170 3695 l0 -75 70 0 70 0 0 75 0 75 -70 0 -70 0 0 -75z"/>
<path d="M4330 3695 l0 -75 75 0 75 0 0 75 0 75 -75 0 -75 0 0 -75z"/>
<path d="M4500 3695 l0 -75 75 0 75 0 0 75 0 75 -75 0 -75 0 0 -75z"/>
<path d="M4670 3695 l0 -75 70 0 70 0 0 75 0 75 -70 0 -70 0 0 -75z"/>
<path d="M4830 3695 c0 -90 1 -90 90 8 l62 67 -76 0 -76 0 0 -75z"/>
<path d="M8180 3695 l0 -75 70 0 70 0 0 75 0 75 -70 0 -70 0 0 -75z"/>
<path d="M2534 3593 c-31 -4 -32 -6 -37 -61 -2 -31 -3 -60 0 -64 2 -5 38 -8
79 -8 l74 0 0 70 0 70 -42 -2 c-24 0 -57 -3 -74 -5z"/>
<path d="M2670 3530 l0 -70 65 0 65 0 0 70 0 70 -65 0 -65 0 0 -70z"/>
<path d="M2820 3530 l0 -70 75 0 75 0 0 70 0 70 -75 0 -75 0 0 -70z"/>
<path d="M2994 3586 c-3 -7 -4 -38 -2 -67 l3 -54 78 -3 77 -3 0 71 0 70 -75 0
c-55 0 -77 -4 -81 -14z"/>
<path d="M3170 3530 l0 -70 65 0 65 0 0 70 0 70 -65 0 -65 0 0 -70z"/>
<path d="M3324 3586 c-3 -7 -4 -38 -2 -67 l3 -54 78 -3 77 -3 0 71 0 70 -75 0
c-55 0 -77 -4 -81 -14z"/>
<path d="M3500 3530 l0 -70 75 0 75 0 0 70 0 70 -75 0 -75 0 0 -70z"/>
<path d="M3670 3530 l0 -71 68 3 67 3 0 65 0 65 -67 3 -68 3 0 -71z"/>
<path d="M3820 3530 l0 -70 80 0 80 0 0 70 0 70 -80 0 -80 0 0 -70z"/>
<path d="M4000 3530 l0 -70 75 0 75 0 0 70 0 70 -75 0 -75 0 0 -70z"/>
<path d="M4170 3530 l0 -71 68 3 67 3 0 65 0 65 -67 3 -68 3 0 -71z"/>
<path d="M4330 3530 l0 -70 75 0 75 0 0 70 0 70 -75 0 -75 0 0 -70z"/>
<path d="M4500 3530 l0 -70 53 0 c93 0 97 3 97 76 l0 64 -75 0 -75 0 0 -70z"/>
<path d="M4670 3545 l0 -56 28 15 c15 8 47 33 72 55 l45 40 -72 1 -73 0 0 -55z"/>
<path d="M8185 3591 c5 -10 108 -51 125 -51 6 0 10 14 10 30 l0 30 -71 0 c-41
0 -68 -4 -64 -9z"/>
<path d="M8330 3565 c0 -32 3 -35 43 -45 23 -6 55 -15 71 -20 45 -15 46 -14
46 45 l0 55 -80 0 -80 0 0 -35z"/>
<path d="M8510 3540 c0 -71 11 -80 94 -80 l56 0 0 70 0 70 -75 0 -75 0 0 -60z"/>
<path d="M8680 3530 c0 -68 1 -70 25 -70 21 0 29 9 45 46 11 25 23 57 26 70 6
23 4 24 -45 24 l-51 0 0 -70z"/>
<path d="M2170 3530 l0 -60 65 0 65 0 0 60 0 60 -65 0 -65 0 0 -60z"/>
<path d="M2330 3531 l0 -59 70 -4 70 -3 0 63 0 62 -70 0 -70 0 0 -59z"/>
<path d="M2170 3365 l0 -75 65 0 65 0 0 75 0 75 -65 0 -65 0 0 -75z"/>
<path d="M2330 3365 l0 -75 70 0 70 0 0 75 0 75 -70 0 -70 0 0 -75z"/>
<path d="M2494 3426 c-3 -7 -4 -40 -2 -72 l3 -59 78 -3 77 -3 0 76 0 75 -75 0
c-55 0 -77 -4 -81 -14z"/>
<path d="M2670 3365 l0 -75 65 0 65 0 0 75 0 75 -65 0 -65 0 0 -75z"/>
<path d="M2820 3365 l0 -75 75 0 75 0 0 75 0 75 -75 0 -75 0 0 -75z"/>
<path d="M2990 3365 l0 -75 80 0 80 0 0 75 0 75 -80 0 -80 0 0 -75z"/>
<path d="M3170 3365 l0 -75 65 0 65 0 0 75 0 75 -65 0 -65 0 0 -75z"/>
<path d="M3324 3426 c-3 -7 -4 -40 -2 -72 l3 -59 78 -3 77 -3 0 76 0 75 -75 0
c-55 0 -77 -4 -81 -14z"/>
<path d="M3500 3365 l0 -75 75 0 75 0 0 75 0 75 -75 0 -75 0 0 -75z"/>
<path d="M3670 3365 l0 -75 70 0 70 0 0 75 0 75 -70 0 -70 0 0 -75z"/>
<path d="M3820 3365 l0 -75 80 0 80 0 0 75 0 75 -80 0 -80 0 0 -75z"/>
<path d="M4000 3365 l0 -75 59 0 c90 0 91 1 91 81 l0 69 -75 0 -75 0 0 -75z"/>
<path d="M4170 3380 l0 -60 68 44 c93 61 94 76 3 76 l-71 0 0 -60z"/>
<path d="M4330 3426 c0 -15 5 -14 70 7 8 3 -4 6 -27 6 -31 1 -43 -3 -43 -13z"/>
<path d="M8626 3425 c25 -19 34 -19 34 0 0 10 -10 15 -27 15 -26 0 -26 -1 -7
-15z"/>
<path d="M8680 3416 c0 -35 18 -42 30 -11 13 35 13 35 -10 35 -15 0 -20 -7
-20 -24z"/>
<path d="M2133 3355 c0 -33 2 -45 4 -27 2 18 2 45 0 60 -2 15 -4 0 -4 -33z"/>
<path d="M2175 3258 c-2 -7 -6 -41 -10 -75 l-6 -63 71 0 70 0 0 69 c0 78 -3
81 -76 81 -27 0 -46 -5 -49 -12z"/>
<path d="M2320 3195 l0 -75 75 0 75 0 0 75 0 75 -75 0 -75 0 0 -75z"/>
<path d="M2497 3263 c-4 -3 -7 -37 -7 -75 l0 -68 80 0 80 0 0 75 0 75 -73 0
c-41 0 -77 -3 -80 -7z"/>
<path d="M2670 3195 l0 -75 65 0 65 0 0 75 0 75 -65 0 -65 0 0 -75z"/>
<path d="M2820 3200 l0 -70 75 0 75 0 0 70 0 70 -75 0 -75 0 0 -70z"/>
<path d="M2994 3256 c-3 -7 -4 -40 -2 -72 l3 -59 78 -3 77 -3 0 76 0 75 -75 0
c-55 0 -77 -4 -81 -14z"/>
<path d="M3170 3195 l0 -75 65 0 65 0 0 75 0 75 -65 0 -65 0 0 -75z"/>
<path d="M3324 3256 c-3 -7 -4 -40 -2 -72 l3 -59 78 -3 77 -3 0 76 0 75 -75 0
c-55 0 -77 -4 -81 -14z"/>
<path d="M3500 3195 l0 -75 75 0 75 0 0 75 0 75 -75 0 -75 0 0 -75z"/>
<path d="M3670 3195 l0 -75 70 0 71 0 -3 73 -3 72 -67 3 -68 3 0 -76z"/>
<path d="M3820 3195 c0 -48 4 -75 11 -75 6 0 42 16 80 36 67 36 69 37 69 75
l0 39 -80 0 -80 0 0 -75z"/>
<path d="M4000 3240 c0 -16 2 -30 5 -30 7 0 85 52 85 56 0 2 -20 4 -45 4 -43
0 -45 -1 -45 -30z"/>
<path d="M2133 3190 c0 -41 2 -58 4 -37 2 20 2 54 0 75 -2 20 -4 3 -4 -38z"/>
<path d="M2167 3093 c-4 -3 -7 -37 -7 -75 l0 -68 70 0 70 0 0 75 0 75 -63 0
c-35 0 -67 -3 -70 -7z"/>
<path d="M2320 3025 l0 -75 75 0 75 0 0 75 0 75 -75 0 -75 0 0 -75z"/>
<path d="M2497 3093 c-11 -11 -8 -123 3 -123 6 0 42 16 80 35 63 32 70 38 70
65 l0 30 -73 0 c-41 0 -77 -3 -80 -7z"/>
<path d="M2670 3075 l0 -25 40 20 c22 11 40 23 40 25 0 3 -18 5 -40 5 -36 0
-40 -2 -40 -25z"/>
<path d="M3093 3093 c9 -2 23 -2 30 0 6 3 -1 5 -18 5 -16 0 -22 -2 -12 -5z"/>
<path d="M3445 3090 c27 -12 35 -12 35 0 0 6 -12 10 -27 9 -25 0 -26 -1 -8 -9z"/>
<path d="M3500 3091 c0 -15 10 -18 83 -26 63 -6 67 -5 67 14 0 19 -6 21 -75
21 -41 0 -75 -4 -75 -9z"/>
<path d="M3670 3085 c0 -19 44 -19 85 0 30 13 29 13 -27 14 -45 1 -58 -2 -58
-14z"/>
<path d="M2117 3053 c-4 -21 -9 -53 -13 -70 -6 -31 -5 -33 20 -33 29 0 31 10
20 94 -8 56 -19 59 -27 9z"/>
<path d="M2100 2924 c-8 -3 -27 -34 -41 -69 l-27 -65 33 -6 c18 -3 43 -4 56
-2 23 3 24 7 24 73 0 72 -5 80 -45 69z"/>
<path d="M2167 2923 c-9 -9 -9 -133 0 -133 4 0 35 15 70 33 60 31 63 34 63 70
l0 37 -63 0 c-35 0 -67 -3 -70 -7z"/>
<path d="M2327 2923 c-4 -3 -7 -17 -7 -30 l0 -23 39 20 c56 28 60 40 13 40
-21 0 -42 -3 -45 -7z"/>
<path d="M2031 2761 c-24 -6 -50 -61 -30 -61 15 0 119 54 119 62 0 9 -55 9
-89 -1z"/>
</g>
</svg>
